<svg version="1.1" id="Layer_1" xmlns="http://www.w3.org/2000/svg" xmlns:xlink="http://www.w3.org/1999/xlink" x="0px" y="0px"
	 width="100%" viewBox="0 0 1025 239" enable-background="new 0 0 1025 239" xml:space="preserve">
<path fill="#1F0A57" opacity="1.000000" stroke="none" 
	d="
M976.000000,240.000000 
	C652.166748,240.000000 328.833435,239.992416 5.500203,240.093094 
	C1.751485,240.094254 0.898302,239.250565 0.904507,235.500015 
	C1.031606,158.666901 1.029173,81.833488 0.903850,5.000373 
	C0.898266,1.576417 1.575936,0.904986 4.999810,0.906003 
	C343.999725,1.006683 682.999634,1.006675 1021.999573,0.906087 
	C1025.422119,0.905071 1026.101807,1.574466 1026.096191,4.999756 
	C1025.970825,81.999542 1025.970947,158.999619 1026.096069,235.999405 
	C1026.101685,239.422882 1025.433960,240.157593 1021.998779,240.103394 
	C1006.835754,239.864212 991.666809,240.000000 976.000000,240.000000 
z"/>
<path fill="#63AFE8" opacity="1.000000" stroke="none" 
	d="
M136.637024,117.877296 
	C141.656189,117.830124 143.156845,120.430458 143.142242,124.599304 
	C143.091476,139.094788 143.091843,153.590652 143.141129,168.086121 
	C143.153458,171.711319 141.969711,174.674866 138.073669,174.764481 
	C133.802139,174.862747 132.692917,171.703812 132.708374,167.910446 
	C132.755905,156.247498 132.587936,144.581802 132.796158,132.922409 
	C132.862900,129.184998 131.696167,127.997414 127.966125,128.103104 
	C119.475487,128.343674 110.964294,128.410843 102.479759,128.079529 
	C98.283318,127.915672 97.515526,129.571136 97.579948,133.274139 
	C97.771210,144.267517 97.682861,155.266525 97.632713,166.263000 
	C97.605110,172.314301 95.956421,173.939636 89.880264,173.953766 
	C75.384682,173.987488 60.888905,173.941360 46.393349,173.980392 
	C42.574734,173.990677 39.001926,173.400330 38.933758,168.701538 
	C38.865440,163.992615 42.370148,163.262283 46.232906,163.274780 
	C58.229183,163.313583 70.227631,163.165573 82.220871,163.359909 
	C85.779030,163.417572 87.228188,162.689163 87.083992,158.735275 
	C86.768440,150.082718 86.777954,141.403397 87.081306,132.749939 
	C87.217590,128.862473 85.885475,128.026352 82.263596,128.097626 
	C71.104607,128.317200 59.938423,128.204529 48.775246,128.163834 
	C42.824009,128.142151 41.307804,126.691132 41.286057,120.836693 
	C41.233452,106.674461 41.288464,92.511856 41.256519,78.349510 
	C41.248089,74.611191 42.317341,71.307487 46.505093,71.268295 
	C50.958080,71.226639 52.064392,74.563354 52.035664,78.556030 
	C51.952946,90.051987 52.196159,101.553650 51.907829,113.042953 
	C51.805214,117.131920 53.165813,118.076912 56.986393,117.955116 
	C65.308777,117.689804 73.656250,117.620850 81.971878,117.976570 
	C86.320549,118.162590 87.176781,116.606621 87.079353,112.608070 
	C86.811554,101.617905 86.960564,90.616821 86.998535,79.620247 
	C87.018402,73.865883 88.730278,72.066521 94.356659,72.047348 
	C109.185379,71.996811 124.014442,72.053490 138.843231,72.015419 
	C142.658173,72.005630 145.775742,73.288887 145.764084,77.429688 
	C145.752380,81.586311 142.609650,82.798172 138.799194,82.781776 
	C126.636406,82.729439 114.470497,82.912109 102.311836,82.683105 
	C98.499573,82.611290 97.473427,83.855881 97.573738,87.521576 
	C97.810654,96.179161 97.801407,104.851570 97.577148,113.509827 
	C97.484093,117.102745 98.799873,117.994011 102.190407,117.940605 
	C113.517509,117.762161 124.849182,117.874390 136.637024,117.877296 
z"/>
<path fill="#CAD9EB" opacity="1.000000" stroke="none" 
	d="
M430.861816,124.221802 
	C436.454346,135.103455 431.285309,143.748672 419.425873,143.855286 
	C409.270905,143.946564 399.111908,143.746323 388.960052,143.946548 
	C385.458221,144.015625 384.362488,142.887741 384.333527,139.401001 
	C384.303955,135.842804 385.868317,135.343643 388.866974,135.383240 
	C399.020996,135.517319 409.177948,135.419708 419.333679,135.440979 
	C422.120544,135.446823 425.094971,135.478775 424.999451,131.646973 
	C424.907654,127.967857 422.016296,127.852989 419.197266,127.864746 
	C411.705475,127.896011 404.209320,128.019257 396.722870,127.814537 
	C390.948761,127.656662 386.435760,125.121506 384.344452,119.430977 
	C382.610443,114.712746 384.165131,109.540657 387.987793,106.315460 
	C390.550232,104.153488 393.607635,103.477142 396.822754,103.462311 
	C407.477783,103.413162 418.134308,103.523987 428.787659,103.380302 
	C431.834930,103.339195 432.875336,104.363335 432.849854,107.407021 
	C432.824554,110.433510 432.200745,111.995583 428.701630,111.937790 
	C418.215729,111.764580 407.724976,111.903305 397.236420,111.859344 
	C394.892365,111.849518 392.605255,112.203247 392.147583,114.787628 
	C391.509338,118.391968 393.982452,119.398102 397.017975,119.412506 
	C404.509796,119.448082 412.001862,119.446022 419.493805,119.433929 
	C423.824982,119.426941 427.760468,120.353889 430.861816,124.221802 
z"/>
<path fill="#E7E6ED" opacity="1.000000" stroke="none" 
	d="
M214.603027,112.268890 
	C211.345032,116.875229 212.441559,119.275612 217.627045,119.386421 
	C225.616913,119.557175 233.624054,119.199150 241.602570,119.549698 
	C250.825165,119.954903 256.304962,128.256821 252.966049,136.282852 
	C250.968140,141.085419 247.052734,143.634933 242.075760,143.751923 
	C230.757843,144.017975 219.429352,143.797760 208.106415,143.906769 
	C204.258469,143.943817 205.167252,141.323257 204.933548,139.104980 
	C204.630402,136.227264 205.814972,135.357330 208.605957,135.388931 
	C218.929596,135.505890 229.255478,135.412521 239.580338,135.447220 
	C242.357971,135.456558 245.467468,135.522537 245.533447,131.873993 
	C245.603653,127.993240 242.467499,127.826134 239.437637,127.856361 
	C232.610504,127.924469 225.782227,127.872978 218.954407,127.879349 
	C215.930908,127.882164 212.966400,127.527809 210.293839,126.018883 
	C205.854767,123.512596 203.340820,118.111359 204.272964,113.309341 
	C205.297714,108.030373 209.235794,103.957596 214.969757,103.756096 
	C226.777420,103.341156 238.605927,103.531761 250.425598,103.439766 
	C254.121201,103.411003 252.861252,106.151489 253.102188,108.065315 
	C253.446899,110.803146 252.386490,111.960754 249.483978,111.922073 
	C240.159851,111.797836 230.832993,111.864250 221.507263,111.886894 
	C219.346420,111.892136 217.185883,112.015617 214.603027,112.268890 
z"/>
<path fill="#86BAE5" opacity="1.000000" stroke="none" 
	d="
M766.990967,119.413239 
	C771.148682,119.430557 774.820740,119.275398 778.469421,119.500877 
	C786.013428,119.967079 790.861206,124.918861 790.835693,131.868423 
	C790.811218,138.513489 785.516235,143.603500 778.032715,143.833466 
	C771.879822,144.022537 765.716553,143.878021 759.557922,143.879807 
	C755.230225,143.881042 750.896484,143.740067 746.576721,143.925293 
	C743.337524,144.064194 741.815308,143.325974 741.772827,139.565018 
	C741.728210,135.620026 743.581055,135.337631 746.641357,135.371719 
	C756.627075,135.483017 766.614990,135.392700 776.601868,135.424408 
	C779.406250,135.433319 782.423035,135.403030 782.390198,131.690674 
	C782.358643,128.124924 779.493042,127.834267 776.608826,127.860207 
	C769.452026,127.924599 762.292969,127.962921 755.137268,127.854507 
	C747.998413,127.746361 743.396606,124.624924 741.635437,118.968277 
	C739.509521,112.140228 743.502380,104.769516 750.687927,103.959999 
	C762.935486,102.580223 775.289734,103.549728 787.598022,103.493126 
	C791.200928,103.476547 789.783752,106.473305 790.033142,108.358505 
	C790.373047,110.927231 789.136536,111.919609 786.581421,111.901985 
	C776.761353,111.834244 766.940491,111.875809 757.119934,111.882675 
	C755.788818,111.883606 754.456787,111.894333 753.126770,111.944077 
	C750.961426,112.025070 749.593567,113.311310 749.444885,115.307335 
	C749.273987,117.600464 750.690552,119.158859 753.019348,119.251320 
	C757.506226,119.429474 762.002441,119.372551 766.990967,119.413239 
z"/>
<path fill="#63AEE7" opacity="1.000000" stroke="none" 
	d="
M970.596313,119.327026 
	C973.592834,118.634804 974.761658,117.052750 974.048157,114.481697 
	C973.378967,112.070221 971.344055,111.854462 969.240845,111.856567 
	C959.409973,111.866379 949.578247,111.779724 939.748840,111.899155 
	C936.524780,111.938324 934.429077,111.712677 934.448303,107.491135 
	C934.466614,103.475082 936.470642,103.365387 939.451660,103.397331 
	C948.948181,103.499107 958.446899,103.494293 967.943848,103.412598 
	C974.067200,103.359924 979.329407,104.926529 981.760254,111.106422 
	C984.069824,116.977882 982.193054,121.919807 977.234741,125.609703 
	C975.541931,126.869461 975.854126,127.909554 976.726318,129.369827 
	C978.432861,132.226974 980.223999,135.060593 981.600586,138.077209 
	C982.357849,139.736633 985.602783,141.954254 982.563354,143.375534 
	C980.070374,144.541306 976.273804,145.187653 974.181519,141.513901 
	C972.451721,138.476578 970.606873,135.495865 969.046692,132.373306 
	C967.449280,129.176010 965.126892,127.693726 961.499207,127.816628 
	C956.506226,127.985794 951.499146,127.979668 946.506104,127.810631 
	C943.741272,127.717026 942.559204,128.576767 942.745911,131.469086 
	C942.938660,134.455475 942.692810,137.467621 942.796143,140.463058 
	C942.904419,143.602005 940.984314,143.837585 938.567078,143.892914 
	C935.968506,143.952393 934.477234,143.310959 934.549194,140.304550 
	C934.684814,134.642639 934.721680,128.970428 934.529053,123.311707 
	C934.421753,120.160851 935.712708,119.355331 938.648804,119.387146 
	C949.144531,119.500877 959.642517,119.405418 970.596313,119.327026 
z"/>
<path fill="#B9D2EB" opacity="1.000000" stroke="none" 
	d="
M509.027191,138.780365 
	C509.495148,142.577515 508.368958,144.001022 504.701904,143.981155 
	C500.930603,143.960678 500.831482,141.979111 500.888763,139.212067 
	C500.995483,134.056808 501.148865,128.884018 500.841522,123.744911 
	C500.620209,120.044556 502.143219,119.323280 505.451233,119.380119 
	C515.430481,119.551590 525.414551,119.423981 535.396729,119.444283 
	C537.733826,119.449036 539.794067,118.911957 540.601257,116.482498 
	C541.216797,114.629890 540.171936,113.083450 538.592041,112.408859 
	C537.288940,111.852440 535.676392,111.896751 534.200012,111.890518 
	C524.717041,111.850487 515.233459,111.819176 505.751038,111.899719 
	C502.791107,111.924858 500.701874,111.853973 500.777161,107.761406 
	C500.843872,104.135185 502.070404,103.315102 505.416779,103.377762 
	C515.229187,103.561470 525.047302,103.460670 534.863037,103.437691 
	C540.797058,103.423805 545.693787,105.158829 548.111084,111.138298 
	C550.265869,116.468338 549.087280,120.715172 543.560608,125.602112 
	C541.995850,126.985771 542.101013,127.787506 542.978638,129.250183 
	C544.686707,132.096756 546.459717,134.927368 547.862427,137.925293 
	C548.659058,139.627869 551.492126,141.214920 549.153992,143.475510 
	C547.486694,145.087448 541.766663,143.569794 540.438049,141.338623 
	C538.569092,138.200211 536.728271,135.038788 535.036499,131.803040 
	C533.552856,128.965408 531.354858,127.765610 528.180054,127.844063 
	C523.524536,127.959122 518.844177,128.136520 514.211731,127.789360 
	C510.221619,127.490334 508.263062,128.445679 508.979218,132.828384 
	C509.270477,134.610870 509.027222,136.480713 509.027191,138.780365 
z"/>
<path fill="#D6E1EE" opacity="1.000000" stroke="none" 
	d="
M365.448547,127.917442 
	C365.449738,120.600113 365.566895,113.765327 365.399261,106.937531 
	C365.324158,103.879013 366.753510,103.343025 369.354889,103.399864 
	C371.908569,103.455658 373.870300,103.445183 373.818878,106.987930 
	C373.659241,117.983376 373.680115,128.983551 373.810333,139.979767 
	C373.847900,143.153549 372.472504,143.791718 369.605438,143.941635 
	C362.300079,144.323669 356.579498,141.653870 352.390656,135.770767 
	C348.242310,129.944534 344.247253,124.008980 340.195068,118.114449 
	C338.573029,115.755013 336.581818,113.741264 334.244629,112.125648 
	C331.670471,110.346222 330.060883,110.387512 330.124268,114.278351 
	C330.262573,122.774361 330.076294,131.275665 330.215881,139.771637 
	C330.263336,142.660355 329.577881,143.985474 326.355347,143.958618 
	C323.197479,143.932297 321.918579,143.102020 321.975739,139.708160 
	C322.158081,128.880112 322.122009,118.046089 321.989349,107.216591 
	C321.955170,104.425362 322.825195,103.542107 325.649628,103.371101 
	C333.654327,102.886429 340.032227,105.729126 344.718719,112.114502 
	C348.654266,117.476669 352.297913,123.052925 356.083038,128.525925 
	C356.650635,129.346664 357.244232,130.156570 357.896515,130.910278 
	C359.720184,133.017578 361.608643,136.530258 364.313416,135.586853 
	C366.850952,134.701797 365.007416,130.881973 365.448547,127.917442 
z"/>
<path fill="#75B4E6" opacity="1.000000" stroke="none" 
	d="
M859.725220,130.094879 
	C860.903503,112.996071 859.689026,111.266670 843.625549,111.829720 
	C837.133911,112.057274 830.622986,111.720901 824.129639,111.923027 
	C820.693420,112.029991 819.955322,110.549583 819.933838,107.446793 
	C819.912842,104.402931 820.899292,103.332314 823.943420,103.377426 
	C833.274292,103.515694 842.614014,103.239326 851.939697,103.500732 
	C861.856201,103.778702 867.879944,110.041138 868.284180,120.012047 
	C868.392090,122.673042 868.380920,125.349236 868.236206,128.008209 
	C867.749207,136.958191 861.556030,143.475952 852.685669,143.760468 
	C843.029297,144.070190 833.355225,143.791122 823.690369,143.897354 
	C820.826599,143.928833 819.917969,142.740479 819.985168,139.996155 
	C820.123901,134.333160 820.182556,128.658508 819.968689,123.000191 
	C819.840454,119.607422 821.845764,119.788498 824.123230,119.758263 
	C826.463074,119.727196 828.458435,119.699272 828.185974,123.037994 
	C827.956299,125.852432 828.318665,128.714996 828.091797,131.529892 
	C827.836243,134.701477 829.215210,135.538712 832.154053,135.466782 
	C838.483276,135.311844 844.820435,135.338638 851.151428,135.450653 
	C855.057983,135.519760 857.936340,134.127136 859.725220,130.094879 
z"/>
<path fill="#94C6EC" opacity="1.000000" stroke="none" 
	d="
M683.284363,103.465637 
	C691.994141,102.804611 698.165955,106.481621 702.834351,112.990311 
	C707.192505,119.066399 711.309082,125.316566 715.705994,131.363556 
	C717.238892,133.471756 719.309875,136.557861 721.850098,135.692902 
	C724.387695,134.828796 722.796143,131.291275 722.857361,128.981186 
	C723.051392,121.665802 723.057861,114.338753 722.868652,107.023148 
	C722.790527,104.002907 724.095276,103.360886 726.720642,103.419319 
	C729.250854,103.475639 731.166199,103.449127 731.103210,107.012428 
	C730.909058,117.989754 730.937195,128.974045 731.092468,139.952621 
	C731.137451,143.131317 729.843506,143.798111 726.961121,143.921768 
	C719.914551,144.224030 714.213379,141.878830 710.102112,136.131241 
	C705.752502,130.050461 701.641968,123.798080 697.264465,117.738106 
	C695.137756,114.793968 692.399475,110.497803 689.044861,111.479507 
	C685.956360,112.383347 687.925720,117.312172 687.792358,120.422432 
	C687.514526,126.899216 687.598877,133.398605 687.750793,139.883652 
	C687.823120,142.970428 686.580627,143.915268 683.616882,143.922867 
	C680.689392,143.930359 679.415710,143.096649 679.452759,139.959320 
	C679.582458,128.980103 679.542358,117.998161 679.472717,107.017853 
	C679.457153,104.565689 680.151245,103.148811 683.284363,103.465637 
z"/>
<path fill="#C2D7EC" opacity="1.000000" stroke="none" 
	d="
M485.793182,116.978683 
	C482.026855,121.384109 481.625427,125.321671 485.344086,129.753021 
	C487.444977,132.256577 488.820221,135.407227 490.302612,138.376114 
	C491.084595,139.942215 493.731750,142.135208 491.220062,143.328156 
	C488.877136,144.440948 485.248047,145.299835 483.133972,142.120941 
	C481.206848,139.223190 479.490295,136.157303 477.967041,133.026337 
	C476.151276,129.294189 473.475159,127.585777 469.250793,127.816132 
	C464.769928,128.060471 460.248352,128.111328 455.776459,127.795494 
	C452.102081,127.535995 451.138550,129.008957 451.475616,132.350754 
	C451.708313,134.657516 451.411835,137.012955 451.544342,139.335678 
	C451.710510,142.249344 451.176544,143.955124 447.557953,143.983124 
	C443.770905,144.012405 443.183533,142.321823 443.224457,139.118423 
	C443.358337,128.633636 443.381836,118.144325 443.211395,107.660591 
	C443.158142,104.384026 444.228119,103.410187 447.487732,103.327225 
	C451.062256,103.236237 451.543793,104.790985 451.577271,107.800529 
	C451.706696,119.441101 451.870636,118.586311 463.656982,119.701324 
	C473.688477,120.650330 478.386261,115.807800 481.499146,107.802589 
	C483.111084,103.657173 486.037628,103.074936 489.816498,103.422836 
	C492.212036,103.643379 492.742767,104.706993 491.647614,106.687279 
	C489.799316,110.029518 487.874786,113.329597 485.793182,116.978683 
z"/>
<path fill="#69ACE2" opacity="1.000000" stroke="none" 
	d="
M877.565063,131.987564 
	C877.562927,119.392174 877.562927,119.392082 889.916321,119.392212 
	C897.581238,119.392296 905.247009,119.456100 912.910767,119.361153 
	C915.895874,119.324165 917.917786,119.519470 917.972046,123.507988 
	C918.029419,127.728912 915.944519,127.988045 912.703857,127.928604 
	C905.041565,127.788071 897.373840,127.952995 889.710449,127.846664 
	C887.156006,127.811226 885.705017,128.207047 885.754272,131.316895 
	C885.799988,134.205307 886.445312,135.498154 889.647217,135.449066 
	C900.142395,135.288147 910.642090,135.448807 921.138916,135.356705 
	C924.181885,135.330002 926.141174,135.593109 926.083740,139.573502 
	C926.029175,143.352188 924.390686,143.956421 921.197876,143.928421 
	C908.535034,143.817444 895.867371,143.718903 883.208679,143.975128 
	C878.947754,144.061371 876.900879,143.041718 877.521179,138.466370 
	C877.787415,136.502945 877.565186,134.473312 877.565063,131.987564 
z"/>
<path fill="#E4E9F1" opacity="1.000000" stroke="none" 
	d="
M269.050415,141.249557 
	C267.069366,145.330536 263.661255,143.757324 260.922516,143.691833 
	C258.894867,143.643356 259.615509,141.756104 260.198914,140.625671 
	C265.911896,129.555405 271.405365,118.358635 277.525085,107.516075 
	C281.645386,100.215958 291.826782,100.237755 296.043640,107.633179 
	C302.209564,118.446892 307.638245,129.680893 313.386658,140.732910 
	C313.945770,141.807846 314.586029,143.412735 313.001404,143.535690 
	C310.254028,143.748871 306.934052,145.412415 304.904816,141.931686 
	C303.566956,139.636780 302.401978,137.240128 301.183502,134.876709 
	C297.681854,128.084641 294.211853,121.276161 290.684540,114.497475 
	C289.787964,112.774559 289.161560,110.550629 286.625336,110.678017 
	C284.427246,110.788437 283.814819,112.744461 282.977386,114.358208 
	C278.386353,123.205177 273.790771,132.049759 269.050415,141.249557 
z"/>
<path fill="#A5CAE9" opacity="1.000000" stroke="none" 
	d="
M604.180664,132.924011 
	C604.180542,135.238464 604.113220,137.069870 604.195801,138.894501 
	C604.324829,141.744354 604.393921,144.031479 600.238281,143.992752 
	C596.401489,143.956955 595.936279,142.229248 595.996643,139.087570 
	C596.146667,131.278336 595.889771,123.459671 596.120850,115.654404 
	C596.214844,112.479790 595.142578,111.647102 592.153870,111.812820 
	C588.011292,112.042503 583.839172,111.719139 579.693176,111.916069 
	C576.470032,112.069153 575.780640,110.579590 575.833984,107.714081 
	C575.882996,105.082649 576.011475,103.340347 579.457947,103.377731 
	C593.252136,103.527374 607.050110,103.532631 620.844055,103.372795 
	C624.248352,103.333351 624.556763,104.988976 624.573547,107.662155 
	C624.590942,110.438950 624.011719,112.069183 620.723755,111.919548 
	C616.245361,111.715736 611.747864,111.966881 607.263794,111.839302 
	C604.901306,111.772087 604.087097,112.608833 604.141968,114.986374 
	C604.276184,120.800758 604.182617,126.620399 604.180664,132.924011 
z"/>
<path fill="#68AAE0" opacity="1.000000" stroke="none" 
	d="
M879.777161,103.441040 
	C893.855957,103.400436 907.506287,103.439445 921.155701,103.348007 
	C924.207825,103.327560 926.143555,103.612297 926.087585,107.572693 
	C926.034363,111.336487 924.414001,111.961700 921.214172,111.934372 
	C908.230896,111.823509 895.246094,111.910484 882.262085,111.859299 
	C880.714050,111.853188 878.351318,112.603645 877.968872,110.497368 
	C877.547363,108.176277 876.080933,105.230537 879.777161,103.441040 
z"/>
<path fill="#AECEEA" opacity="1.000000" stroke="none" 
	d="
M567.768311,115.043488 
	C567.767639,123.530647 567.661560,131.526611 567.818726,139.517410 
	C567.881042,142.686996 566.928040,143.933609 563.575500,143.971146 
	C560.033691,144.010788 559.468018,142.412094 559.500916,139.410233 
	C559.617676,128.752991 559.629272,118.092628 559.492615,107.435860 
	C559.454407,104.457062 560.315796,103.324936 563.439026,103.345375 
	C566.566650,103.365852 568.142273,104.131279 567.809937,107.559677 
	C567.585999,109.869492 567.767944,112.218658 567.768311,115.043488 
z"/>
<path fill="#81BDEB" opacity="1.000000" stroke="none" 
	d="
M800.852295,123.999786 
	C800.853027,118.020966 800.990112,112.537170 800.799377,107.064804 
	C800.696960,104.125092 801.909973,103.325287 804.605103,103.408325 
	C807.138977,103.486389 809.062927,103.496948 809.006897,107.023415 
	C808.830139,118.144722 808.868958,129.271317 808.983887,140.394211 
	C809.016113,143.509277 807.369385,143.874680 804.899963,143.885559 
	C802.436829,143.896423 800.717957,143.583878 800.814148,140.437180 
	C800.976440,135.129211 800.854614,129.812561 800.852295,123.999786 
z"/>
<path fill="#A0CBED" opacity="1.000000" stroke="none" 
	d="
M661.293457,143.636719 
	C659.537537,142.548126 659.889099,141.118317 659.886169,139.837296 
	C659.861572,129.024139 659.970398,118.209412 659.809021,107.398598 
	C659.763245,104.329163 660.762024,103.385025 663.785950,103.379456 
	C666.992249,103.373550 668.107544,104.330147 668.035339,107.677856 
	C667.820312,117.654655 667.671082,127.650787 668.077942,137.615616 
	C668.285828,142.707596 666.828064,144.799896 661.293457,143.636719 
z"/>
<path fill="#61AAE3" opacity="1.000000" stroke="none" 
	d="
M73.903023,97.127014 
	C74.720459,102.405022 72.959366,105.586494 69.042778,106.045120 
	C65.221153,106.492638 62.440269,104.845619 61.755161,100.945122 
	C61.087730,97.145226 62.856106,94.439255 66.649750,93.470505 
	C69.798286,92.666504 72.081581,94.191864 73.903023,97.127014 
z"/>
<path fill="#61ABE4" opacity="1.000000" stroke="none" 
	d="
M74.482544,145.256607 
	C74.449799,148.551620 73.078392,150.813904 70.366943,151.776718 
	C67.291565,152.868759 64.345764,152.205460 62.576675,149.232376 
	C60.873711,146.370407 61.118088,143.398224 63.708359,141.147583 
	C66.427597,138.784882 69.433968,138.871399 72.285873,141.099564 
	C73.503250,142.050659 74.149376,143.388580 74.482544,145.256607 
z"/>
<path fill="#61ABE4" opacity="1.000000" stroke="none" 
	d="
M116.910088,106.096573 
	C112.305656,105.760574 110.052864,103.400795 110.258102,99.258270 
	C110.425735,95.874496 112.567001,93.659714 115.962059,93.319130 
	C119.388969,92.975342 121.894516,94.835098 122.665245,98.085983 
	C123.685936,102.391228 121.642273,105.120224 116.910088,106.096573 
z"/>
<path fill="#61ABE5" opacity="1.000000" stroke="none" 
	d="
M111.885574,150.218201 
	C109.513451,145.313705 110.241249,141.798721 113.653648,140.121063 
	C116.956169,138.497391 120.971962,139.962662 122.421982,143.357178 
	C123.615227,146.150558 122.965134,148.697571 120.765175,150.583328 
	C117.999222,152.954254 115.003059,152.744949 111.885574,150.218201 
z"/>
</svg>